<svg width="99" height="40" viewBox="0 0 99 40" fill="none" xmlns="http://www.w3.org/2000/svg">
<path d="M54.0331 17.7127H35.5698V0H63.0992V17.7127H60.6838V2.08212H37.9853V15.6012H54.0331" fill="url(#paint0_linear_1_311)"/>
<path d="M4.73162 31.4662C2.01838 31.4662 0 30.0879 0 27.0087V22.1113H2.11765V26.9501C2.11765 28.9149 3.07721 29.8826 4.76471 29.8826C6.45221 29.8826 7.41177 28.9149 7.41177 26.9501V22.1113H9.46324V27.0087C9.43015 30.0879 7.44485 31.4662 4.73162 31.4662ZM13.4669 27.6245V31.2023H11.4816V24.6627H13.3015L13.4007 25.865C13.8309 25.1025 14.9228 24.4867 16.1471 24.4867V26.2169C14.7904 25.8943 13.4669 26.5102 13.4669 27.6245ZM21.9044 31.4075C20.8456 31.4075 19.7537 30.9677 19.1581 30.1759L19.0919 31.2316H17.3051V22.1113H19.2904V25.5424C19.9191 24.8386 20.9449 24.4574 21.9375 24.4574C23.9559 24.4574 25.4118 25.953 25.4118 27.9178C25.4118 29.8826 23.9228 31.4075 21.9044 31.4075ZM21.3088 25.777C20.1507 25.777 19.1912 26.5688 19.1912 27.9471C19.1912 29.2961 20.1507 30.1172 21.3088 30.1172C22.4669 30.1172 23.4265 29.3254 23.4265 27.9471C23.3934 26.5688 22.4669 25.777 21.3088 25.777ZM32.8235 31.2316L32.7574 30.1759C32.1287 30.9677 31.0368 31.4075 30.011 31.4075C27.9927 31.4075 26.5368 29.9119 26.5368 27.9471C26.5368 25.9823 28.0257 24.4867 30.011 24.4867C31.0699 24.4867 32.1618 24.9266 32.7574 25.7184L32.8235 24.6627H34.6103V31.2316H32.8235ZM30.6066 25.777C29.4485 25.777 28.489 26.5688 28.489 27.9471C28.489 29.2961 29.4485 30.1172 30.6066 30.1172C31.7647 30.1172 32.7243 29.3254 32.7243 27.9471C32.6912 26.5688 31.7647 25.777 30.6066 25.777ZM41.9228 31.2316V27.5952C41.9228 26.3049 41.4265 25.8943 40.5 25.8943C39.5404 25.8943 38.5147 26.6568 38.5147 27.5659V31.2316H36.5294V24.6627H38.3493L38.4485 25.865C38.9449 25.0146 40.0699 24.4574 41.1949 24.4574C43.1801 24.4574 43.9081 25.6597 43.9081 27.302V31.2023H41.9228V31.2316ZM49.3015 31.2316V22.1113H51.386V29.7946H55.9853V31.2316H49.3015ZM63 31.2316L62.9338 30.1759C62.3051 30.9677 61.2132 31.4075 60.1875 31.4075C58.1691 31.4075 56.7132 29.9119 56.7132 27.9471C56.7132 25.9823 58.2022 24.4867 60.1875 24.4867C61.2463 24.4867 62.3382 24.9266 62.9338 25.7184L63 24.6627H64.7868V31.2316H63ZM60.7831 25.777C59.625 25.777 58.6654 26.5688 58.6654 27.9471C58.6654 29.2961 59.625 30.1172 60.7831 30.1172C61.9412 30.1172 62.9007 29.3254 62.9007 27.9471C62.9007 26.5688 61.9412 25.777 60.7831 25.777ZM72.6287 31.2316L72.5625 30.1759C71.9338 30.9677 70.8419 31.4075 69.8162 31.4075C67.7978 31.4075 66.3419 29.9119 66.3419 27.9471C66.3419 25.9823 67.8309 24.4867 69.8162 24.4867C70.8088 24.4867 71.8346 24.8386 72.4632 25.5718V22.1113H74.4485V31.2316H72.6287ZM70.4118 25.777C69.2537 25.777 68.2941 26.5688 68.2941 27.9471C68.2941 29.2961 69.2537 30.1172 70.4118 30.1172C71.5699 30.1172 72.5294 29.3254 72.5294 27.9471C72.5294 26.5688 71.6029 25.777 70.4118 25.777ZM82.2904 31.2316L82.2243 30.1759C81.5956 30.9677 80.5037 31.4075 79.4779 31.4075C77.4596 31.4075 76.0037 29.9119 76.0037 27.9471C76.0037 25.9823 77.4927 24.4867 79.4779 24.4867C80.4706 24.4867 81.4963 24.8386 82.125 25.5718V22.1113H84.1103V31.2316H82.2904ZM80.0735 25.777C78.9154 25.777 77.9559 26.5688 77.9559 27.9471C77.9559 29.2961 78.9154 30.1172 80.0735 30.1172C81.2316 30.1172 82.1912 29.3254 82.1912 27.9471C82.1912 26.5688 81.2316 25.777 80.0735 25.777ZM92.5478 27.9765H87.6176C87.5515 28.9735 88.1471 30.1172 90.1324 30.1172C90.9596 30.1172 91.9522 29.7946 92.5478 29.3548V30.6451C91.8529 31.1436 90.761 31.4075 89.5368 31.4075C87.2537 31.4075 85.6654 29.9413 85.6654 27.8885C85.6654 25.777 87.4853 24.4574 89.4044 24.4574C91.2904 24.4574 92.7132 25.5131 92.7132 27.0674C92.6471 27.3606 92.614 27.7418 92.5478 27.9765ZM89.4044 25.6011C88.5772 25.6011 87.8493 26.041 87.6838 27.038H90.8603C91.0257 26.2462 90.4301 25.6011 89.4044 25.6011ZM96.3199 27.6245V31.2023H94.3346V24.6627H96.1544L96.2537 25.865C96.6838 25.1025 97.7757 24.4867 99 24.4867V26.2169C97.6434 25.8943 96.3199 26.5102 96.3199 27.6245ZM18.364 39.7654C19.0588 39.7654 19.125 39.6481 19.125 38.9149V36.5102C19.125 35.7771 19.0588 35.6598 18.364 35.6598V35.5131H20.5147V35.6598C19.8199 35.6598 19.7537 35.7771 19.7537 36.5102V38.7976C19.7537 39.5307 19.8199 39.6481 20.5147 39.6481H21.0772C21.8051 39.6481 21.8713 39.4428 22.0037 39.0909L22.0368 38.9442H22.2022L22.136 39.912H18.364V39.7654ZM24.3529 38.2991C24.3529 37.302 25.1471 36.6275 25.9743 36.6275C26.7684 36.6275 27.2978 37.126 27.2978 37.8005C27.2978 37.9178 27.2647 38.0058 27.2647 38.0938H25.0147V38.3284C25.0147 39.0029 25.2463 39.7067 26.2059 39.7067C26.6029 39.7067 27 39.5014 27.2647 39.2668L27.4301 39.4428C27.1324 39.7653 26.7022 40 26.0404 40C24.9816 40 24.3529 39.2668 24.3529 38.2991ZM26.7022 37.8005C26.7022 37.7419 26.7353 37.6832 26.7353 37.5953C26.7353 37.214 26.5368 36.9208 26.0404 36.9208C25.5772 36.9208 25.2463 37.214 25.114 37.8005H26.7022ZM30.2426 39.0615V36.9794H29.7132V36.7741C30.2757 36.6568 30.4412 36.3343 30.5074 35.7771H30.8382V36.7155H31.5993V36.9794H30.8382V39.0615C30.8382 39.4721 30.9044 39.6481 31.2022 39.6481C31.4007 39.6481 31.5331 39.5601 31.7316 39.3841L31.8971 39.5307C31.6324 39.824 31.3677 40 31.0037 40C30.4743 40 30.2426 39.736 30.2426 39.0615ZM34.3125 36.8328C34.6103 36.5395 34.7096 36.3343 34.7757 36.041H34.7096C34.511 36.041 34.3125 35.865 34.3125 35.6891C34.3125 35.5131 34.511 35.3372 34.7096 35.3372C34.9081 35.3372 35.1397 35.4838 35.1397 35.7771C35.1397 36.0996 34.9081 36.5982 34.4118 36.8914L34.3125 36.8328ZM37.3897 38.8269H37.5551C37.5882 39.2375 38.0184 39.7067 38.7132 39.7067C39.1434 39.7067 39.3419 39.4721 39.3419 39.1788C39.3419 38.9442 39.1434 38.7683 38.7132 38.563L38.1507 38.2991C37.7537 38.1231 37.489 37.8299 37.489 37.4193C37.489 36.9208 37.9853 36.5982 38.5809 36.5982C39.0441 36.5982 39.3088 36.7741 39.4081 36.8621C39.4743 36.8035 39.5074 36.6862 39.5074 36.6275H39.6397V37.5073H39.4743C39.4412 37.126 39.1103 36.8621 38.614 36.8621C38.1838 36.8621 38.0184 37.0967 38.0184 37.3313C38.0184 37.5659 38.25 37.7419 38.6471 37.9178L39.1434 38.1231C39.6066 38.3284 39.8713 38.5923 39.8713 39.0322C39.8713 39.5894 39.375 39.9706 38.6801 39.9706C38.3162 39.9706 37.9191 39.824 37.7206 39.6187C37.6213 39.7067 37.5551 39.824 37.5551 39.9413H37.4228V38.8269H37.3897ZM45.7279 37.6832C45.7279 36.3929 46.6544 35.3372 47.9779 35.3372C48.5735 35.3372 49.0699 35.5131 49.4007 35.865C49.5 35.7771 49.5993 35.6891 49.6324 35.5131H49.7978V37.0381H49.5993C49.3676 36.0703 48.8382 35.6304 48.0441 35.6304C46.8199 35.6304 46.4559 36.7448 46.4559 37.6539C46.4559 38.563 46.8199 39.6774 48.0441 39.6774C48.8382 39.6774 49.3676 39.2082 49.5993 38.2697H49.7647V39.7947H49.5993C49.5662 39.6187 49.4669 39.5014 49.3676 39.4428C49.0368 39.7947 48.5404 39.9706 47.9449 39.9706C46.6544 40.0293 45.7279 38.9736 45.7279 37.6832ZM52.2794 39.7654C52.8419 39.7654 52.9081 39.6481 52.9081 38.9149V37.8299C52.9081 37.0967 52.8419 36.9794 52.2794 36.9794V36.8328L53.3382 36.6568C53.4044 36.7448 53.5037 37.0674 53.5037 37.3607C53.6691 36.9794 54 36.6862 54.3971 36.6862C54.9596 36.6862 55.0919 37.0381 55.0919 37.214C55.0919 37.39 55.0257 37.5953 54.7279 37.5953C54.5625 37.5953 54.4301 37.4486 54.4301 37.302C54.4301 37.126 54.364 36.9794 54.1324 36.9794C53.9007 36.9794 53.4706 37.39 53.4706 38.0938V38.9442C53.4706 39.6774 53.5368 39.7947 54.0993 39.7947V39.9413H52.2132V39.7654H52.2794ZM57.2757 38.2991C57.2757 37.302 58.0699 36.6275 58.8971 36.6275C59.6912 36.6275 60.2206 37.126 60.2206 37.8005C60.2206 37.9178 60.1875 38.0058 60.1875 38.0938H57.9375V38.3284C57.9375 39.0029 58.1691 39.7067 59.1287 39.7067C59.5257 39.7067 59.9228 39.5014 60.1875 39.2668L60.3529 39.4428C60.0551 39.7653 59.625 40 58.9632 40C57.9044 40 57.2757 39.2668 57.2757 38.2991ZM59.5919 37.8005V37.5953C59.5919 37.214 59.3934 36.9208 58.8971 36.9208C58.4338 36.9208 58.1029 37.214 57.9706 37.8005H59.5919ZM62.7353 39.2082C62.7353 38.475 63.5956 38.1231 64.7868 37.9472V37.7419C64.7868 37.126 64.6213 36.9208 64.1581 36.9208C63.8934 36.9208 63.5294 37.0674 63.5294 37.3607C63.5294 37.5073 63.3971 37.6246 63.2316 37.6246C63.0662 37.6246 62.9338 37.5073 62.9338 37.3607C62.9338 37.0087 63.5294 36.6862 64.1581 36.6862C65.0846 36.6862 65.4154 37.0674 65.4154 37.7712V39.4134C65.4154 39.6187 65.4816 39.736 65.6471 39.736C65.7463 39.736 65.8456 39.6774 65.9118 39.6187L66.0441 39.7654C65.8787 39.9413 65.614 40 65.4154 40C65.0515 40 64.9191 39.7947 64.8529 39.5014C64.3897 39.8827 64.125 40 63.7279 40C63.0993 39.9706 62.7353 39.6481 62.7353 39.2082ZM64.8199 39.2375V38.1524C63.7941 38.3284 63.3971 38.6803 63.3971 39.1202C63.3971 39.4428 63.5956 39.6187 63.9265 39.6187C64.125 39.648 64.3566 39.5894 64.8199 39.2375ZM68.6581 39.0615V36.9794H68.1287V36.7741C68.6912 36.6568 68.8566 36.3343 68.9228 35.7771H69.2537V36.7155H70.0147V36.9794H69.2537V39.0615C69.2537 39.4721 69.3199 39.6481 69.6176 39.6481C69.8162 39.6481 69.9485 39.5601 70.1471 39.3841L70.3125 39.5307C70.0478 39.824 69.7831 40 69.4191 40C68.8897 40 68.6581 39.736 68.6581 39.0615ZM72.5294 38.2991C72.5294 37.302 73.3235 36.6275 74.1507 36.6275C74.9449 36.6275 75.4743 37.126 75.4743 37.8005C75.4743 37.9178 75.4412 38.0058 75.4412 38.0938H73.1912V38.3284C73.1912 39.0029 73.4228 39.7067 74.3824 39.7067C74.7794 39.7067 75.1765 39.5014 75.4412 39.2668L75.6066 39.4428C75.3088 39.7653 74.8787 40 74.2169 40C73.1581 40 72.5294 39.2668 72.5294 38.2991ZM74.8456 37.8005V37.5953C74.8456 37.214 74.6471 36.9208 74.1507 36.9208C73.6875 36.9208 73.3566 37.214 73.2243 37.8005H74.8456Z" fill="#0A3A54"/>
<defs>
<linearGradient id="paint0_linear_1_311" x1="35.5853" y1="8.86184" x2="63.0582" y2="8.86184" gradientUnits="userSpaceOnUse">
<stop stop-color="#EC8523"/>
<stop offset="0.35" stop-color="#ED7745"/>
<stop offset="0.46" stop-color="#EC7046"/>
<stop offset="0.79" stop-color="#E95D48"/>
<stop offset="1" stop-color="#E85448"/>
</linearGradient>
</defs>
</svg>
