<svg width="20" height="16" viewBox="0 0 20 16" fill="none" xmlns="http://www.w3.org/2000/svg">
<path d="M19.375 2.27735C18.6717 2.58296 17.9275 2.7843 17.166 2.87501C17.9663 2.4064 18.5681 1.66195 18.8586 0.781256C18.102 1.22368 17.2756 1.5341 16.4148 1.69923C16.0524 1.31935 15.6165 1.01716 15.1336 0.811001C14.6507 0.604845 14.1309 0.499036 13.6059 0.500007C11.4801 0.500007 9.75977 2.19532 9.75977 4.28516C9.75826 4.57585 9.79157 4.86568 9.85898 5.14844C8.33464 5.07698 6.842 4.68812 5.47656 4.00675C4.11111 3.32537 2.90292 2.36647 1.9293 1.19141C1.58772 1.76724 1.40708 2.42424 1.40625 3.09376C1.40625 4.40626 2.09102 5.56641 3.125 6.2461C2.51239 6.23156 1.91234 6.06942 1.37578 5.77344V5.82032C1.37578 7.65626 2.70391 9.1836 4.46172 9.53126C4.13117 9.61937 3.79053 9.66402 3.44844 9.66407C3.20569 9.66449 2.9635 9.64094 2.72539 9.59375C3.21406 11.0977 4.63633 12.1914 6.32109 12.2227C4.9521 13.2777 3.27134 13.848 1.54297 13.8438C1.23618 13.8433 0.929674 13.825 0.625 13.7891C2.38327 14.9118 4.42713 15.5057 6.51328 15.5C13.5977 15.5 17.468 9.73047 17.468 4.72657C17.468 4.56251 17.4637 4.39844 17.4559 4.23829C18.2071 3.70394 18.857 3.03989 19.375 2.27735Z" fill="black"/>
</svg>
