<svg width="99" height="40" viewBox="0 0 99 40" fill="none" xmlns="http://www.w3.org/2000/svg">
<path d="M5.57358 20.059H2.12458V2.24189H0V39.351H2.12458V22.5959H5.57358V39.351H7.67057V2.24189H5.57358V20.059ZM12.5957 12.2419C10.416 12.2419 8.89841 16.5192 8.89841 26.0472C8.89841 35.8112 10.5401 39.9705 12.5957 39.9705C14.5686 39.9705 16.2655 36.0177 16.2655 26.0472C16.2655 16.4012 14.7065 12.2419 12.5957 12.2419ZM12.5957 38.2596C11.5748 38.2596 11.1058 35.4867 11.1058 26.1062C11.1058 16.4012 11.6162 13.8938 12.5681 13.8938C13.5753 13.8938 14.0581 16.6667 14.0581 26.0472C14.0581 35.7522 13.5477 38.2596 12.5957 38.2596ZM47.8859 20.059C49.0999 18.8791 50.2036 16.2242 50.2036 11.5634C50.2036 5.13274 48.686 2.24189 46.5339 2.24189H42.9607V39.351H46.4235C48.893 39.351 50.5347 36.3127 50.5347 29.0265C50.5209 23.8938 49.3896 21.1504 47.8859 20.059ZM45.0853 4.45428H45.913C47.1685 4.45428 47.9686 5.66372 47.9686 11.6814C47.9686 17.5516 47.0443 18.7316 45.8303 18.7316H45.0853V4.45428ZM45.9268 37.0796H45.0853V21.2094H45.8027C47.3202 21.2094 48.2722 22.6549 48.2722 29.1445C48.2722 35.6932 47.3616 37.0796 45.9268 37.0796ZM78.7337 15.1622V12.7729H76.6781V3.9528L74.6639 4.80826V12.7729H73.6706V15.1622H74.6639V39.646H76.6781V15.1622H78.7337ZM80.8583 8.0236C81.4101 8.0236 81.8792 6.99115 81.8792 5.84071C81.8792 4.66077 81.4101 3.65782 80.8583 3.65782C80.3064 3.65782 79.8374 4.63127 79.8374 5.84071C79.8236 6.99115 80.3064 8.0236 80.8583 8.0236ZM81.8516 12.7729L79.8512 13.5988V28.4956H79.8374V39.646H81.8378L81.8516 12.7729ZM88.584 3.9528H89.4808C89.4808 1.85841 88.6806 0 87.2458 0C85.2454 0 84.1693 3.45133 84.1693 8.82006V12.7729H82.9967V15.1622H84.1555V39.646H86.1559V15.1622H87.7011V12.7729H86.087C86.0594 11.2094 85.9076 9.11504 85.9076 7.10914C85.9076 4.39528 86.2939 1.74041 87.4252 1.74041C87.4252 1.74041 88.4047 1.74041 88.584 3.9528ZM96.972 2.50737V39.6165H99V1.68142L96.972 2.50737ZM27.4264 38.3481C27.4264 38.3481 26.4193 38.3481 25.7295 35.9587L25.1087 37.1681C25.6467 39.056 26.5711 39.941 27.6196 39.941C29.5924 39.941 30.9306 37.5516 30.9306 34.0708C30.9306 28.7316 28.1576 24.3658 27.0539 20.2655C26.778 19.2035 26.6125 18.1121 26.6125 17.1091C26.6125 15.2802 27.1505 13.9528 28.13 13.9528C28.13 13.9528 29.2337 13.8348 29.9235 16.2242L30.5443 15.0147C30.0063 13.1268 29.0819 12.2419 28.0334 12.2419H27.9369C25.7847 12.2419 24.7776 15.0737 24.7776 18.4071C24.7776 25.2212 28.944 29.3805 28.944 34.9263C28.944 37.4926 28.2542 38.3776 27.454 38.3776L27.4264 38.3481ZM38.2701 24.3658C38.1045 15.8997 36.7111 12.2124 34.8625 12.2124C32.8344 12.2124 31.4135 16.4897 31.4135 26.0177V26.1357C31.4135 35.7817 33.0138 39.941 34.959 39.941C34.959 39.941 35.166 39.9705 35.4005 39.941C36.449 39.882 37.3733 39.056 37.9114 37.1681L37.2906 35.9587C36.9319 37.0206 36.518 37.4041 35.8558 37.5221C35.4557 37.5811 35.3729 37.5221 35.3729 37.5221C34.3934 37.5221 33.6484 35.5752 33.4829 29.0265L33.4691 28.1416L38.2701 24.3658ZM34.8349 13.8643C35.6764 13.8643 36.1317 16.1357 36.2145 23.5398L33.4829 25.6932V24.3658C33.5242 16.0472 34.0071 13.8643 34.8349 13.8643ZM58.0673 24.3658C57.9018 15.8997 56.5084 12.2124 54.6597 12.2124C52.6317 12.2124 51.2107 16.4897 51.2107 26.0177V26.1357C51.2107 35.7817 52.811 39.941 54.7563 39.941C54.7563 39.941 54.9632 39.9705 55.1977 39.941C56.2462 39.882 57.1706 39.056 57.7086 37.1681L57.0878 35.9587C56.7291 37.0206 56.3152 37.4041 55.653 37.5221C55.2529 37.5811 55.1702 37.5221 55.1702 37.5221C54.1906 37.5221 53.4457 35.5752 53.2801 29.0265L53.2663 28.1416L58.0673 24.3658ZM54.6321 13.8643C55.4737 13.8643 55.9289 16.1357 56.0117 23.5398L53.2801 25.6932V24.3658C53.3353 16.0472 53.8043 13.8643 54.6321 13.8643ZM21.8804 37.6991C22.0874 39.292 22.6806 39.7345 23.2186 39.7345C23.7291 39.7345 24.2533 39.233 24.4603 38.7906V37.0206C23.9912 37.5811 23.6325 37.2861 23.6325 36.1357V12.7729L21.6321 13.5693V35.9882C21.3286 37.1091 20.8319 37.7581 20.3215 37.7581C19.7834 37.7581 19.342 37.1091 19.342 35.0442V12.8024L17.3416 13.6578V34.7198C17.3416 37.7581 18.0589 40 19.6317 40C20.3905 40 21.3148 39.292 21.8528 37.7286L21.8804 37.6991ZM70.7872 37.6991C70.9941 39.292 71.5874 39.7345 72.1254 39.7345C72.6359 39.7345 73.1601 39.233 73.3671 38.7906V37.0206C72.898 37.5811 72.5393 37.2861 72.5393 36.1357V12.7729L70.5389 13.5693V35.9882C70.2354 37.1091 69.7387 37.7581 69.2283 37.7581C68.6902 37.7581 68.2487 37.1091 68.2487 35.0442V12.8024L66.2483 13.6578V34.7198C66.2483 37.7581 66.9657 40 68.5385 40C69.2972 40 70.2216 39.292 70.7596 37.7286L70.7872 37.6991ZM93.385 37.6991C93.592 39.292 94.1852 39.7345 94.7232 39.7345C95.2337 39.7345 95.7579 39.233 95.9649 38.7906V37.0206C95.4958 37.5811 95.1371 37.2861 95.1371 36.1357V12.7729L93.1367 13.5693V35.9882C92.8332 37.1091 92.3365 37.7581 91.8261 37.7581C91.288 37.7581 90.8466 37.1091 90.8466 35.0442V12.8024L88.8462 13.6578V34.7198C88.8462 37.7581 89.5635 40 91.1363 40C91.8951 40 92.8194 39.292 93.3574 37.7286L93.385 37.6991ZM64.8687 36.1357L64.8549 35.9587V19.823C64.8549 14.4838 63.903 12.2124 61.8474 12.2124H61.5991C60.5506 12.2124 59.6676 13.0678 59.1296 14.9558L59.7504 16.1652C59.7504 16.1652 60.4264 14.0413 61.3645 14.1003C62.1923 14.1298 62.8545 14.7198 62.8545 18.3776V22.5959C60.2609 23.8643 58.3846 26.4897 58.3846 32.7434C58.3846 38.1416 59.7918 39.9705 60.9783 39.9705C61.6681 39.9705 62.5372 39.292 63.1304 37.9351C63.365 39.3805 63.9306 39.764 64.4548 39.764C64.9791 39.764 65.4895 39.2625 65.6965 38.8201V37.0501C65.2412 37.5811 64.8687 37.2861 64.8687 36.1357ZM62.8545 28.4366L62.8407 34.3953V36.2242C62.6614 36.9911 62.1785 37.8466 61.6543 37.8466C61.0334 37.8466 60.4264 36.6962 60.4264 32.2419C60.4264 27.1976 61.199 25.3687 62.8683 24.2478L62.8545 28.4366Z" fill="#1B2937"/>
</svg>
